<svg width="96" height="96" viewBox="0 0 96 96" fill="none" xmlns="http://www.w3.org/2000/svg">
  <ellipse cx="48" cy="90" rx="22" ry="4" fill="#D1FAE5"/>

  <path d="M43 46H53V75C53 80.5228 48.5228 85 43 85V46Z" fill="#65A30D"/>
  <path d="M43 46H53V85C47.4772 85 43 80.5228 43 75V46Z" fill="#84CC16"/>

  <path d="M36 73C36 68.5817 39.5817 65 44 65H52C56.4183 65 60 68.5817 60 73V76H36V73Z" fill="#4D7C0F"/>

  <circle cx="31" cy="35" r="17" fill="#22C55E"/>
  <circle cx="48" cy="28" r="20" fill="#16A34A"/>
  <circle cx="65" cy="35" r="17" fill="#22C55E"/>
  <circle cx="48" cy="43" r="18" fill="#15803D"/>
  <circle cx="20" cy="44" r="10" fill="#16A34A"/>
  <circle cx="76" cy="44" r="10" fill="#16A34A"/>

  <circle cx="43" cy="42" r="2.7" fill="#111827"/>
  <circle cx="53" cy="42" r="2.7" fill="#111827"/>
  <circle cx="42.2" cy="41.2" r="0.8" fill="white"/>
  <circle cx="52.2" cy="41.2" r="0.8" fill="white"/>
  <path d="M42 50C43.6 52.5 46.4 54 49.5 54C52.6 54 55.4 52.5 57 50" stroke="#14532D" stroke-width="2.5" stroke-linecap="round"/>

  <path d="M31 22C33.5 19.5 36.2 19.1 39 20.5" stroke="#86EFAC" stroke-width="2" stroke-linecap="round"/>
  <path d="M56.5 20.5C59.3 19.1 62 19.5 64.5 22" stroke="#86EFAC" stroke-width="2" stroke-linecap="round"/>
</svg>
